<mxfile host="app.diagrams.net" modified="2021-10-17T08:04:49.805Z" agent="5.0 (Macintosh; Intel Mac OS X 10_15_7) AppleWebKit/537.36 (KHTML, like Gecko) Chrome/94.0.4606.81 Safari/537.36" etag="zXmnJsKofsjetauMI1vB" version="15.4.3" type="github">
  <diagram id="kgpKYQtTHZ0yAKxKKP6v" name="Page-1">
    <mxGraphModel dx="2276" dy="769" grid="1" gridSize="10" guides="1" tooltips="1" connect="1" arrows="1" fold="1" page="1" pageScale="1" pageWidth="850" pageHeight="1100" math="0" shadow="0">
      <root>
        <mxCell id="0" />
        <mxCell id="1" parent="0" />
        <mxCell id="PkFjDZNRQ1d5nHVOUc1E-2" value="Subconscious mind" style="text;html=1;strokeColor=none;fillColor=none;align=center;verticalAlign=middle;whiteSpace=wrap;rounded=0;fontSize=23;" vertex="1" parent="1">
          <mxGeometry x="-170" y="70" width="240" height="30" as="geometry" />
        </mxCell>
        <mxCell id="PkFjDZNRQ1d5nHVOUc1E-3" value="" style="ellipse;whiteSpace=wrap;html=1;strokeWidth=2;fillWeight=2;hachureGap=8;fillStyle=dots;sketch=1;fontSize=23;fillColor=#bac8d3;strokeColor=#23445d;" vertex="1" parent="1">
          <mxGeometry x="-200" y="50" width="300" height="170" as="geometry" />
        </mxCell>
        <mxCell id="PkFjDZNRQ1d5nHVOUc1E-4" value="GARDEN" style="text;html=1;strokeColor=none;fillColor=none;align=center;verticalAlign=middle;whiteSpace=wrap;rounded=0;fontSize=23;" vertex="1" parent="1">
          <mxGeometry x="-80" y="120" width="60" height="30" as="geometry" />
        </mxCell>
        <mxCell id="PkFjDZNRQ1d5nHVOUc1E-7" value="" style="shape=singleArrow;direction=north;whiteSpace=wrap;html=1;fontSize=23;fillColor=#b0e3e6;strokeColor=#0e8088;" vertex="1" parent="1">
          <mxGeometry x="-110" y="180" width="10" height="60" as="geometry" />
        </mxCell>
        <mxCell id="PkFjDZNRQ1d5nHVOUc1E-9" value="&lt;h1 style=&quot;font-size: 27px&quot;&gt;Seeds&lt;/h1&gt;&lt;div&gt;Good Actions&lt;/div&gt;&lt;div&gt;Right Actions&lt;/div&gt;&lt;div&gt;Equality&lt;/div&gt;&lt;div&gt;Right thinking&lt;/div&gt;" style="text;html=1;strokeColor=none;fillColor=none;spacing=5;spacingTop=-20;whiteSpace=wrap;overflow=hidden;rounded=0;fontSize=23;" vertex="1" parent="1">
          <mxGeometry x="-130" y="240" width="230" height="180" as="geometry" />
        </mxCell>
        <mxCell id="PkFjDZNRQ1d5nHVOUc1E-10" value="" style="ellipse;whiteSpace=wrap;html=1;strokeWidth=2;fillWeight=2;hachureGap=8;fillColor=#b0e3e6;fillStyle=dots;sketch=1;fontSize=27;strokeColor=#0e8088;" vertex="1" parent="1">
          <mxGeometry x="240" y="50" width="250" height="175" as="geometry" />
        </mxCell>
        <mxCell id="PkFjDZNRQ1d5nHVOUc1E-11" value="" style="endArrow=classic;html=1;rounded=0;fontSize=27;edgeStyle=orthogonalEdgeStyle;" edge="1" parent="1" target="PkFjDZNRQ1d5nHVOUc1E-10">
          <mxGeometry width="50" height="50" relative="1" as="geometry">
            <mxPoint x="100" y="140" as="sourcePoint" />
            <mxPoint x="230" y="140" as="targetPoint" />
          </mxGeometry>
        </mxCell>
        <mxCell id="PkFjDZNRQ1d5nHVOUc1E-14" value="" style="shape=singleArrow;direction=north;whiteSpace=wrap;html=1;fontSize=23;fillColor=#b0e3e6;strokeColor=#0e8088;" vertex="1" parent="1">
          <mxGeometry x="310" y="180" width="10" height="60" as="geometry" />
        </mxCell>
        <mxCell id="PkFjDZNRQ1d5nHVOUc1E-15" value="&lt;h1 style=&quot;font-size: 27px&quot;&gt;Harvests&lt;/h1&gt;&lt;div&gt;Miraculous healing power&lt;/div&gt;&lt;div&gt;Free from materialistic&amp;nbsp;&lt;br&gt;attachments&lt;/div&gt;" style="text;html=1;strokeColor=none;fillColor=none;spacing=5;spacingTop=-20;whiteSpace=wrap;overflow=hidden;rounded=0;fontSize=23;" vertex="1" parent="1">
          <mxGeometry x="280" y="240" width="270" height="180" as="geometry" />
        </mxCell>
      </root>
    </mxGraphModel>
  </diagram>
</mxfile>
